<svg width="1024" height="1024" viewBox="0 0 1024 1024" xmlns="http://www.w3.org/2000/svg" role="img" aria-label="tab-renderer project cover">
  <defs>
    <linearGradient id="bg" x1="0" y1="0" x2="0" y2="1">
      <stop offset="0%" stop-color="#0b1020"/>
      <stop offset="100%" stop-color="#161932"/>
    </linearGradient>
    <radialGradient id="goldGlow" cx="35%" cy="28%" r="45%">
      <stop offset="0%" stop-color="#f5c442" stop-opacity="0.55"/>
      <stop offset="100%" stop-color="#f5c442" stop-opacity="0"/>
    </radialGradient>
    <radialGradient id="blueGlow" cx="78%" cy="74%" r="40%">
      <stop offset="0%" stop-color="#5eb0ff" stop-opacity="0.45"/>
      <stop offset="100%" stop-color="#5eb0ff" stop-opacity="0"/>
    </radialGradient>
    <radialGradient id="orangeGlow" cx="79%" cy="24%" r="28%">
      <stop offset="0%" stop-color="#ff9a50" stop-opacity="0.28"/>
      <stop offset="100%" stop-color="#ff9a50" stop-opacity="0"/>
    </radialGradient>
    <filter id="blur40" x="-20%" y="-20%" width="140%" height="140%">
      <feGaussianBlur stdDeviation="40"/>
    </filter>
  </defs>

  <rect width="1024" height="1024" fill="url(#bg)"/>
  <rect width="1024" height="1024" fill="url(#goldGlow)" filter="url(#blur40)"/>
  <rect width="1024" height="1024" fill="url(#blueGlow)" filter="url(#blur40)"/>
  <rect width="1024" height="1024" fill="url(#orangeGlow)" filter="url(#blur40)"/>

  <rect x="140" y="140" width="744" height="744" rx="56" fill="#0d1326" fill-opacity="0.94" stroke="rgba(255,255,255,0.10)"/>

  <g transform="translate(230 220)">
    <rect width="270" height="420" rx="30" fill="#121a30" stroke="rgba(255,255,255,0.12)"/>
    <g stroke="rgba(255,255,255,0.15)" stroke-width="2">
      <line x1="38" y1="60" x2="232" y2="60"/>
      <line x1="38" y1="115" x2="232" y2="115"/>
      <line x1="38" y1="170" x2="232" y2="170"/>
      <line x1="38" y1="225" x2="232" y2="225"/>
      <line x1="38" y1="280" x2="232" y2="280"/>
      <line x1="38" y1="335" x2="232" y2="335"/>
      <line x1="52" y1="50" x2="52" y2="376"/>
      <line x1="94" y1="50" x2="94" y2="376"/>
      <line x1="136" y1="50" x2="136" y2="376"/>
      <line x1="178" y1="50" x2="178" y2="376"/>
      <line x1="220" y1="50" x2="220" y2="376"/>
    </g>
    <g>
      <circle cx="94" cy="86" r="16" fill="#f5c442"/>
      <circle cx="178" cy="141" r="16" fill="#58c7ff"/>
      <circle cx="136" cy="196" r="16" fill="#f5c442"/>
      <circle cx="220" cy="251" r="16" fill="#58c7ff"/>
      <circle cx="94" cy="306" r="16" fill="#f5c442"/>
    </g>
  </g>

  <g transform="translate(560 220)">
    <g fill="#161f3a" stroke="rgba(255,255,255,0.10)">
      <rect x="0" y="0" width="220" height="56" rx="18"/>
      <rect x="0" y="100" width="280" height="56" rx="18"/>
      <rect x="0" y="200" width="220" height="56" rx="18"/>
      <rect x="0" y="300" width="280" height="56" rx="18"/>
      <rect x="0" y="400" width="220" height="56" rx="18"/>
    </g>
    <g>
      <rect x="18" y="15" width="60" height="26" rx="13" fill="#f5c442"/>
      <rect x="96" y="15" width="60" height="26" rx="13" fill="#58c7ff"/>
      <rect x="18" y="115" width="60" height="26" rx="13" fill="#f5c442"/>
      <rect x="96" y="115" width="60" height="26" rx="13" fill="#58c7ff"/>
      <rect x="18" y="215" width="60" height="26" rx="13" fill="#f5c442"/>
      <rect x="96" y="215" width="60" height="26" rx="13" fill="#58c7ff"/>
      <rect x="18" y="315" width="60" height="26" rx="13" fill="#f5c442"/>
      <rect x="96" y="315" width="60" height="26" rx="13" fill="#58c7ff"/>
      <rect x="18" y="415" width="60" height="26" rx="13" fill="#f5c442"/>
      <rect x="96" y="415" width="60" height="26" rx="13" fill="#58c7ff"/>
    </g>
  </g>

  <g stroke="rgba(255,255,255,0.16)" stroke-width="3" fill="none">
    <path d="M240 772 C 320 744, 388 832, 470 804 S 620 780, 700 808 S 820 836, 860 788"/>
  </g>
  <g fill="#f5c442" fill-opacity="0.62">
    <rect x="470" y="760" width="28" height="60" rx="10"/>
    <rect x="520" y="760" width="28" height="60" rx="10"/>
    <rect x="570" y="760" width="28" height="60" rx="10"/>
    <rect x="620" y="760" width="28" height="60" rx="10"/>
  </g>
</svg>
