<svg
	width="1024"
	height="1024"
	viewBox="0 0 1024 1024"
	fill="none"
	xmlns="http://www.w3.org/2000/svg"
>
	<rect width="1024" height="1024" rx="120" fill="#0B1020" />
	<circle cx="512" cy="512" r="360" fill="url(#paint0_radial)" opacity="0.92" />
	<path
		d="M238 678C336 620 431 596 512 596C593 596 688 620 786 678"
		stroke="#E8C84A"
		stroke-width="18"
		stroke-linecap="round"
		opacity="0.9"
	/>
	<path
		d="M270 382C354 330 436 304 512 304C588 304 670 330 754 382"
		stroke="#94A3B8"
		stroke-width="12"
		stroke-linecap="round"
		opacity="0.55"
	/>
	<g opacity="0.95">
		<rect
			x="285"
			y="360"
			width="454"
			height="18"
			rx="9"
			fill="#E2E8F0"
			opacity="0.28"
		/>
		<rect
			x="285"
			y="430"
			width="454"
			height="18"
			rx="9"
			fill="#E2E8F0"
			opacity="0.28"
		/>
		<rect
			x="285"
			y="500"
			width="454"
			height="18"
			rx="9"
			fill="#E2E8F0"
			opacity="0.28"
		/>
		<rect
			x="285"
			y="570"
			width="454"
			height="18"
			rx="9"
			fill="#E2E8F0"
			opacity="0.28"
		/>
		<rect
			x="285"
			y="640"
			width="454"
			height="18"
			rx="9"
			fill="#E2E8F0"
			opacity="0.28"
		/>
		<rect
			x="285"
			y="710"
			width="454"
			height="18"
			rx="9"
			fill="#E2E8F0"
			opacity="0.28"
		/>
	</g>
	<g>
		<rect x="386" y="396" width="28" height="28" rx="14" fill="#E8C84A" />
		<rect x="484" y="466" width="28" height="28" rx="14" fill="#E8C84A" />
		<rect x="582" y="536" width="28" height="28" rx="14" fill="#E8C84A" />
		<rect x="435" y="606" width="28" height="28" rx="14" fill="#E8C84A" />
		<rect x="623" y="676" width="28" height="28" rx="14" fill="#E8C84A" />
	</g>
	<path
		d="M350 300L512 210L674 300"
		stroke="#38BDF8"
		stroke-width="16"
		stroke-linecap="round"
		stroke-linejoin="round"
		opacity="0.9"
	/>
	<path
		d="M512 210L512 338"
		stroke="#38BDF8"
		stroke-width="16"
		stroke-linecap="round"
		opacity="0.9"
	/>
	<path
		d="M434 300L434 740"
		stroke="#38BDF8"
		stroke-width="6"
		stroke-linecap="round"
		opacity="0.24"
	/>
	<path
		d="M512 260L512 790"
		stroke="#38BDF8"
		stroke-width="6"
		stroke-linecap="round"
		opacity="0.24"
	/>
	<path
		d="M590 300L590 740"
		stroke="#38BDF8"
		stroke-width="6"
		stroke-linecap="round"
		opacity="0.24"
	/>
	<path
		d="M330 750C418 804 606 804 694 750"
		stroke="#94A3B8"
		stroke-width="12"
		stroke-linecap="round"
		opacity="0.4"
	/>
	<defs>
		<radialGradient
			id="paint0_radial"
			cx="0"
			cy="0"
			r="1"
			gradientUnits="userSpaceOnUse"
			gradientTransform="translate(512 512) rotate(90) scale(360)"
		>
			<stop stop-color="#172554" />
			<stop offset="0.55" stop-color="#0F172A" />
			<stop offset="1" stop-color="#0B1020" stop-opacity="0" />
		</radialGradient>
	</defs>
</svg>
